<?xml version="1.0" encoding="UTF-8" standalone="no"?>
<svg
   width="210mm"
   height="297mm"
   viewBox="0 0 210 297"
   version="1.1"
   id="svg6"
   sodipodi:docname="morty.svg"
   inkscape:version="1.1-dev (372c7851a0, 2020-11-22)"
   xmlns:inkscape="http://www.inkscape.org/namespaces/inkscape"
   xmlns:sodipodi="http://sodipodi.sourceforge.net/DTD/sodipodi-0.dtd"
   xmlns="http://www.w3.org/2000/svg"
   xmlns:svg="http://www.w3.org/2000/svg">
  <defs
     id="defs2" />
  <sodipodi:namedview
     id="base"
     pagecolor="#ffffff"
     bordercolor="#666666"
     borderopacity="1.0"
     inkscape:pageopacity="0.0"
     inkscape:pageshadow="2"
     inkscape:zoom="1.3641449"
     inkscape:cx="510.57626"
     inkscape:cy="318.88108"
     inkscape:document-units="mm"
     inkscape:current-layer="layer3"
     showgrid="false"
     inkscape:window-width="1880"
     inkscape:window-height="1043"
     inkscape:window-x="1406"
     inkscape:window-y="0"
     inkscape:window-maximized="1" />
  <g
     inkscape:label="Layer 1"
     inkscape:groupmode="layer"
     id="layer1"
     sodipodi:insensitive="true">
    <g
       id="g3314"
       transform="translate(-13.435258,-15.406274)"
       style="stroke:#000000;stroke-width:0.1;stroke-miterlimit:4;stroke-dasharray:none;stroke-opacity:0.999814">
      <path
         style="fill:#ff0000;fill-rule:evenodd;stroke:#000000;stroke-width:0.1;stroke-miterlimit:4;stroke-dasharray:none;stroke-opacity:0.999814"
         id="path30"
         sodipodi:type="arc"
         sodipodi:cx="114.27528"
         sodipodi:cy="135.42261"
         sodipodi:rx="82.266533"
         sodipodi:ry="81.385384"
         sodipodi:start="6.1254757"
         sodipodi:end="6.1095126"
         sodipodi:open="true"
         sodipodi:arc-type="arc"
         d="M 195.52086,122.64049 A 82.266533,81.385384 0 0 1 127.51992,215.74631 82.266533,81.385384 0 0 1 33.135424,148.84583 82.266533,81.385384 0 0 1 100.38303,55.206038 82.266533,81.385384 0 0 1 195.30426,121.35913" />
      <path
         style="fill:#a0a0a0;stroke:#000000;stroke-width:0.377953;stroke-miterlimit:4;stroke-dasharray:none;stroke-opacity:0.999814"
         d="M 393.78267,816.3959 C 275.56869,801.40044 175.42324,720.28109 138.09596,609.28571 c -12.36478,-36.76757 -16.7676,-67.4235 -15.56206,-108.3556 1.07504,-36.50097 7.6087,-68.57798 20.46297,-100.46298 56.57093,-140.32407 203.97753,-219.24074 352.71742,-188.83337 83.7085,17.11279 159.61497,71.22838 203.68651,145.21311 47.53801,79.80404 55.73209,179.74059 21.75234,265.29599 -40.48905,101.94478 -128.60778,173.04224 -238.296,192.26604 -22.54594,3.95137 -65.95507,4.9197 -89.07447,1.987 z"
         id="path97"
         transform="scale(0.26458333)" />
      <path
         style="fill:#f6bc99;fill-opacity:1;stroke:#000000;stroke-width:0.1;stroke-miterlimit:4;stroke-dasharray:none;stroke-opacity:0.999814"
         d="M 104.18832,216.00475 C 80.347713,212.72317 59.083011,199.47053 46.01071,179.74716 39.676816,170.19063 35.044697,158.03286 33.489627,146.88348 32.727878,141.42197 32.723949,130.5201 33.481637,124.67649 35.721078,107.40469 44.022332,91.01358 56.93461,78.367778 63.577803,71.861687 70.120247,67.20706 78.310144,63.16015 104.0576,50.437441 134.96947,52.242307 158.91524,67.866473 c 12.96114,8.456901 22.73805,19.41118 29.18066,32.694667 5.51964,11.38049 8.07004,22.43219 8.08572,35.03794 0.0199,16.01381 -4.36372,30.62566 -13.2195,44.06424 -12.58789,19.10202 -31.81719,31.62921 -54.99783,35.82908 -4.03645,0.73133 -19.72846,1.06947 -23.77596,0.51235 z"
         id="path136" />
      <path
         style="fill:none;stroke:#000000;stroke-width:0.1;stroke-linecap:butt;stroke-linejoin:miter;stroke-miterlimit:4;stroke-dasharray:none;stroke-opacity:0.999814"
         d="m 31.799698,139.31967 c -17.940847,0.12555 -17.789729,24.63767 5.306114,25.27323 v 0"
         id="path2594"
         sodipodi:nodetypes="ccc" />
      <path
         style="fill:none;stroke:#000000;stroke-width:0.1;stroke-linecap:butt;stroke-linejoin:miter;stroke-miterlimit:4;stroke-dasharray:none;stroke-opacity:0.999814"
         d="m 196.66652,135.89462 c 19.26261,0.13068 19.10036,25.64533 -5.69705,26.30688 v 0"
         id="path2594-3"
         sodipodi:nodetypes="ccc" />
    </g>
    <path
       style="fill:#f6bc99;fill-opacity:1;stroke:#000000;stroke-width:1.42857;stroke-opacity:0.999814"
       d="M 73.219516,562.15103 C 44.07118,556.86636 24.684651,538.61693 23.17148,515.03851 22.636446,506.70153 23.095892,503.5461 25.739658,497.4005 31.62961,483.70894 45.262281,474.39923 62.93474,472.0001 l 6.506169,-0.88325 1.756508,16.94157 c 2.046904,19.74244 7.177422,43.78389 13.133493,61.54315 2.31334,6.89771 4.213824,13.02343 4.223296,13.61272 0.02254,1.40223 -2.82486,1.2048 -15.33469,-1.06326 z"
       id="path3415"
       transform="scale(0.26458333)" />
    <path
       style="fill:#f6bc99;fill-opacity:1;stroke:#000000;stroke-width:1.42857;stroke-opacity:0.999814"
       d="m 679.44504,543.49306 c 6.42553,-20.23411 13.37967,-62.71003 13.40722,-81.89139 0.005,-3.25908 0.3025,-3.35885 7.26846,-2.43478 17.52164,2.32433 31.31263,11.09758 38.05278,24.20761 2.9751,5.78676 3.79426,9.46141 3.87145,17.3668 0.17498,17.9202 -10.29694,33.83912 -28.93252,43.98187 -7.52368,4.0949 -26.50051,9.56254 -33.18922,9.56254 h -3.90547 z"
       id="path3454"
       transform="scale(0.26458333)" />
    <circle
       style="fill:#000000;fill-opacity:0.995947;stroke-width:0.264583"
       id="path5609"
       sodipodi:type="arc"
       sodipodi:cx="21.579895"
       sodipodi:cy="31.864759"
       sodipodi:rx="4.6467261"
       sodipodi:ry="6.168776"
       sodipodi:start="6.1254774"
       sodipodi:end="6.1266118"
       sodipodi:arc-type="slice"
       d="m 26.168955,30.895922 a 4.6467261,6.168776 0 0 1 8.25e-4,0.0069 l -4.589885,0.961925 z" />
    <circle
       style="fill:#000000;fill-opacity:0.995947;stroke-width:0.264583"
       id="path5894"
       sodipodi:type="arc"
       sodipodi:cx="30.259363"
       sodipodi:cy="27.64488"
       sodipodi:rx="12.517738"
       sodipodi:ry="22.883389"
       sodipodi:start="6.1254774"
       sodipodi:end="6.1266118"
       sodipodi:arc-type="slice"
       d="m 42.621755,24.05093 a 12.517738,22.883389 0 0 1 0.0022,0.02564 L 30.259363,27.64488 Z" />
    <circle
       style="fill:#000000;fill-opacity:0.995947;stroke-width:0.264583"
       id="path5972"
       sodipodi:type="arc"
       sodipodi:cx="149.75186"
       sodipodi:cy="234.17323"
       sodipodi:rx="0.030376583"
       sodipodi:ry="0.11182839"
       sodipodi:start="6.1254774"
       sodipodi:end="6.115878"
       sodipodi:arc-type="slice"
       d="m 149.78186,234.15567 a 0.03037658,0.11182839 0 0 1 -0.0252,0.12796 0.03037658,0.11182839 0 0 1 -0.0348,-0.0923 0.03037658,0.11182839 0 0 1 0.025,-0.12841 0.03037658,0.11182839 0 0 1 0.0349,0.0917 l -0.03,0.0186 z" />
    <path
       style="fill:none;stroke:#000000;stroke-width:0.617;stroke-linecap:butt;stroke-linejoin:miter;stroke-miterlimit:4;stroke-dasharray:none;stroke-opacity:1"
       d="m 103.38658,119.61555 c 15.74579,9.83127 7.99595,18.20502 -4.949064,7.9943"
       id="path6907"
       sodipodi:nodetypes="cc" />
    <path
       style="fill:none;stroke:#000000;stroke-width:0.264583px;stroke-linecap:butt;stroke-linejoin:miter;stroke-opacity:1"
       d="m 18.372907,124.64966 c -2.440193,0.0927 -2.893882,-3.17757 -3.965572,-4.77605 -0.323947,-0.48318 -2.014283,-3.41225 -2.113753,-3.71066 -0.169036,-0.50711 0.169037,-1.09651 0,-1.60362 -0.203156,-0.60947 -0.830483,-1.00713 -1.069078,-1.60362 -0.132348,-0.33087 0.112691,-0.731 0,-1.06908 -0.07968,-0.23905 -0.454854,-0.29548 -0.534539,-0.53453 -0.11269,-0.33808 0.08643,-0.72336 0,-1.06908 -0.09663,-0.38653 -0.437907,-0.68256 -0.534539,-1.06908 -0.2660697,-1.06428 0,-2.65709 0,-3.74177 v -8.018089 c 0,-1.281843 0.309508,-3.038282 0,-4.276312 -0.09663,-0.386527 -0.4379074,-0.682554 -0.5345387,-1.069078 -0.2441745,-0.976699 -0.2366754,-5.467768 0,-6.414471 0.2314352,-0.92574 0.8375767,-1.746589 1.0690127,-2.672334 0.165579,-0.662316 -0.214677,-1.494126 0,-2.138159 0.410272,-1.230815 1.286321,-2.472587 1.603617,-3.741772 0.311934,-1.247732 0.753428,-2.474997 1.069078,-3.721864 4.858296,-12.625634 16.335111,-30.693802 25.041966,-35.308706 0.150982,-0.07386 0.35478,0.0769 0.50423,0 0.427524,-0.219999 0.591976,-0.800815 1.019945,-1.019945 0.137253,-0.07028 0.32652,0.07252 0.4626,0 C 82.962993,5.5958987 162.3349,10.016958 193.30464,65.977481 c 0.12434,0.497364 -0.12434,1.087985 0,1.585349 0.0927,0.370871 0.43269,0.679934 0.52541,1.050806 0.12577,0.503097 -0.12578,1.100523 0,1.603618 0.0966,0.386525 0.46903,0.676077 0.53453,1.069078 0.24421,1.465223 0,3.205755 0,4.698799 v 10.12957 c 0,1.198806 0.41292,8.056279 0,8.882086 -0.10893,0.217866 -0.40872,0.298376 -0.51672,0.51671 -0.20959,0.423709 0.21134,1.160987 0,1.583698 -0.11127,0.222557 -0.41711,0.305015 -0.52782,0.527852 -0.15856,0.319143 0.15937,0.75034 0,1.069078 -0.11269,0.225383 -0.42185,0.309158 -0.53454,0.534538 -0.15937,0.318738 0.11269,0.731006 0,1.069077 -0.42911,1.28734 -1.1737,2.4547 -1.60362,3.74178 -0.32325,0.96775 0.48371,2.61028 0,3.49644 -0.11605,0.21262 -0.40724,0.29634 -0.51385,0.51385 -0.20996,0.42837 0.21326,1.17037 0,1.59688 -0.11127,0.22254 -0.44973,0.29154 -0.52782,0.52778 -0.11184,0.33836 0.0864,0.72336 0,1.06908 -0.0966,0.38652 -0.4379,0.68255 -0.53454,1.06908 -0.13874,0.55496 0.29546,1.92169 0,2.45764 -0.71885,1.30396 -1.39876,1.99337 -1.79447,3.54638 0,2.93524 0.18665,-1.18094 -0.52795,1.31977 -0.12087,0.42295 0.41967,1.18786 0,1.31963 -1.30853,0.41085 -2.74295,-0.0185 -4.11443,-0.0278"
       id="path7785"
       sodipodi:nodetypes="csssssssssssssssscccsccssssssssssssssssssssscssc" />
    <path
       style="fill:#916736;fill-opacity:1;stroke:#000000;stroke-width:1.01015;stroke-opacity:0.999814"
       d="m 62.175789,465.33244 c -1.417234,-1.8581 -2.576789,-3.79717 -2.576789,-4.30905 0,-0.5119 -2.719863,-5.69652 -6.044141,-11.52141 -4.133064,-7.24206 -6.056546,-11.70858 -6.083377,-14.12623 -0.02158,-1.94455 -0.928157,-4.67196 -2.014617,-6.06092 -1.086461,-1.38896 -1.98549,-3.77544 -1.997844,-5.3033 -0.01235,-1.52785 -0.427298,-2.77792 -0.922097,-2.77792 -1.768811,0 -2.395523,-8.02718 -3.07579,-39.39595 -0.452981,-20.88807 -1.135896,-33.38148 -1.987812,-36.36549 -1.784579,-6.25086 -0.875653,-19.29604 1.814958,-26.04882 1.170386,-2.93739 2.127974,-7.21953 2.127974,-9.51588 0,-2.43457 1.2356,-6.94611 2.963807,-10.82175 1.630094,-3.65561 4.343989,-11.19224 6.030879,-16.74808 8.066671,-26.56792 34.515956,-73.34218 58.01303,-102.59321 11.1167,-13.83894 27.4263,-29.34447 34.51338,-32.81186 3.00843,-1.47188 5.99926,-3.31404 6.64631,-4.09368 0.64704,-0.77964 1.61978,-1.41753 2.16164,-1.41753 0.54185,0 4.46367,-2.4459 8.71515,-5.43533 51.63978,-36.310549 119.64712,-59.852213 193.09294,-66.841742 21.69552,-2.064671 71.8153,-1.522653 91.92388,0.994105 106.57455,13.338702 194.17793,59.601387 253.57762,133.912417 14.03021,17.55228 29.30252,41.8802 30.43883,48.48733 0.42997,2.50012 1.15511,6.82055 1.61141,9.60093 0.45628,2.78038 1.16086,5.59121 1.56571,6.24628 0.40486,0.65506 0.89159,20.99515 1.08164,45.2002 0.27827,35.44207 0.0843,44.35324 -0.99613,45.77658 -0.7379,0.97207 -1.35611,2.68296 -1.37378,3.80197 -0.0177,1.11901 -0.94126,4.52186 -2.05243,7.56188 -1.11117,3.04003 -2.02031,6.28686 -2.02031,7.21519 0,0.92832 -1.40321,4.79857 -3.11825,8.60055 -2.6997,5.98482 -3.03589,7.65844 -2.50466,12.46854 0.4676,4.23391 0.22536,6.10968 -1.01808,7.88357 -0.98158,1.4003 -1.393,3.27875 -1.03262,4.71462 0.33815,1.34727 0.11836,2.54713 -0.50461,2.75479 -1.45345,0.48448 -3.21152,8.267 -3.10477,13.74407 0.0614,3.1511 -0.73651,5.68303 -2.89811,9.19608 -1.64058,2.66628 -3.27081,6.28746 -3.62272,8.04708 -0.35193,1.75961 -1.03572,3.44395 -1.51955,3.74298 -0.48382,0.29901 -0.87968,2.17115 -0.87968,4.16029 v 3.61662 l -5.3033,-0.637 c -2.91681,-0.35035 -6.25593,-0.64096 -7.42027,-0.64578 -2.0318,-0.008 -2.1429,-0.64889 -2.76151,-15.91868 C 688.35561,359.0485 650.32971,279.90058 588.9918,226.05282 542.10234,184.88917 488.4753,160.00895 425.81112,150.34527 406.54621,147.37435 369.24696,146.6836 348.50263,148.91358 241.09131,160.46008 149.37201,223.61227 101.71487,318.83623 81.211054,359.805 71.215976,399.95477 69.999626,446.23489 l -0.590719,22.47589 h -2.328165 c -1.453035,0 -3.296745,-1.26987 -4.904953,-3.37834 z"
       id="path8260"
       transform="scale(0.26458333)" />
    <path
       style="fill:none;stroke:#000000;stroke-width:0.286282;stroke-linecap:butt;stroke-linejoin:miter;stroke-miterlimit:4;stroke-dasharray:none;stroke-opacity:1"
       d="m 96.303764,157.29146 c -0.572929,15.24299 4.200066,14.49649 4.200066,14.49649 4.01757,-3.097 2.48681,-11.14165 2.7479,-11.05378 0.11094,1.28463 1.14317,5.6011 2.21316,6.88764 0.57001,1.31516 3.04658,0.84703 3.46944,-0.74045 1.24273,-1.93801 1.40952,-13.38646 0.96085,-18.7788"
       id="path10113"
       sodipodi:nodetypes="cccccc" />
  </g>
  <g
     inkscape:groupmode="layer"
     id="layer2"
     inkscape:label="Layer 2"
     style="display:inline"
     sodipodi:insensitive="true">
    <g
       id="g7625"
       style="opacity:1;fill:#ffffff"
       transform="translate(1.1992233,-3.3964222)">
      <ellipse
         style="opacity:1;fill:#ffffff;stroke-width:0.264583"
         id="path7524"
         cx="72.015221"
         cy="92.212631"
         rx="23.517025"
         ry="21.714811" />
      <ellipse
         style="display:inline;fill:#ffffff;stroke-width:0.264583"
         id="path7524-3"
         cx="130.13075"
         cy="91.610687"
         rx="23.517025"
         ry="21.714811" />
    </g>
  </g>
  <g
     inkscape:groupmode="layer"
     id="layer3"
     inkscape:label="Layer 3"
     style="display:inline">
    <g
       id="g7688">
      <g
         id="g7683"
         transform="translate(1.1319119,-0.59530258)">
        <ellipse
           style="fill:#000000;fill-opacity:0.995947;stroke-width:0.0185042"
           id="path5970"
           cx="72.394707"
           cy="88.536186"
           rx="2.0155287"
           ry="2.2426424" />
        <ellipse
           style="fill:#000000;fill-opacity:0.995947;stroke-width:0.0185042"
           id="path5970-7"
           cx="131.47659"
           cy="88.07383"
           rx="2.0155287"
           ry="2.2426424" />
      </g>
    </g>
    <path
       style="fill:none;stroke:#000000;stroke-width:0.518;stroke-linecap:butt;stroke-linejoin:miter;stroke-miterlimit:4;stroke-dasharray:none;stroke-opacity:1"
       d="M 50.803158,65.006438 C 59.994957,57.755629 71.978553,53.961358 84.543369,55.36432"
       id="path6255"
       sodipodi:nodetypes="cc" />
    <path
       style="fill:none;stroke:#000000;stroke-width:0.518;stroke-linecap:butt;stroke-linejoin:miter;stroke-miterlimit:4;stroke-dasharray:none;stroke-opacity:1"
       d="m 152.21127,64.116493 c -9.19179,-7.250809 -21.17539,-11.04508 -33.74019,-9.642118"
       id="path6255-3"
       sodipodi:nodetypes="cc" />
  </g>
</svg>
